<svg xmlns="http://www.w3.org/2000/svg" width="1600" height="900" viewBox="0 0 1600 900"><defs>
<linearGradient id="bg" x1="0" y1="0" x2="1" y2="1"><stop offset="0" stop-color="#07071D"/><stop offset=".62" stop-color="#07071D"/><stop offset="1" stop-color="#0A0A2D"/></linearGradient>
<radialGradient id="ng" cx="78%" cy="50%" r="48%"><stop offset="0" stop-color="#131365" stop-opacity=".58"/><stop offset=".5" stop-color="#131365" stop-opacity=".18"/><stop offset="1" stop-color="#07071D" stop-opacity="0"/></radialGradient>
<radialGradient id="ag" cx="78%" cy="50%" r="30%"><stop offset="0" stop-color="#EC7B69" stop-opacity=".15"/><stop offset="1" stop-color="#EC7B69" stop-opacity="0"/></radialGradient>
<linearGradient id="left" x1="0" y1="0" x2="1" y2="0"><stop offset="0" stop-color="#07071D"/><stop offset=".4" stop-color="#07071D" stop-opacity=".99"/><stop offset=".68" stop-color="#07071D" stop-opacity=".18"/><stop offset="1" stop-color="#07071D" stop-opacity="0"/></linearGradient>
<pattern id="grid" width="48" height="48" patternUnits="userSpaceOnUse"><path d="M48 0H0V48" fill="none" stroke="#E8E8F7" stroke-opacity=".026"/></pattern>
<filter id="glow" x="-100%" y="-100%" width="300%" height="300%"><feGaussianBlur stdDeviation="6" result="b"/><feMerge><feMergeNode in="b"/><feMergeNode in="SourceGraphic"/></feMerge></filter>
</defs><rect width="1600" height="900" fill="url(#bg)"/><rect width="1600" height="900" fill="url(#grid)"/><rect width="1600" height="900" fill="url(#ng)"/><rect width="1600" height="900" fill="url(#ag)"/><g transform="translate(1050 430)"><g transform="translate(-40 30)"><polygon points="-210,20 0,-100 210,20 0,145" fill="#0E0E34" stroke="#25234A" stroke-width="3"/><polygon points="-160,-12 0,-100 160,-12 0,80" fill="#11113D" stroke="#131365" stroke-width="3"/><polygon points="-105,-38 0,-98 105,-38 0,22" fill="#131365" fill-opacity=".55" stroke="#EC7B69" stroke-width="2"/><path d="M0-138V-20M-30-108L0-138 30-108" fill="none" stroke="#EC7B69" stroke-width="10" stroke-linecap="round"/></g><g transform="translate(260 -10)" fill="none" stroke="#EC7B69" stroke-width="4" stroke-linecap="round"><path d="M0 0C100-110 235-90 285 10 330 100 285 220 175 250"/><path d="M30 45C105-25 195-5 220 55 245 115 205 185 140 205"/><path d="M70 85C120 45 165 65 175 100 185 135 155 168 120 175"/></g><circle cx="-370" cy="-180" r="4" fill="#EC7B69" fill-opacity=".9" filter="url(#glow)"/><circle cx="-250" cy="-260" r="3" fill="#EC7B69" fill-opacity=".9" filter="url(#glow)"/><circle cx="-100" cy="-300" r="4" fill="#EC7B69" fill-opacity=".9" filter="url(#glow)"/><circle cx="140" cy="-286" r="3" fill="#EC7B69" fill-opacity=".9" filter="url(#glow)"/><circle cx="310" cy="-185" r="4" fill="#EC7B69" fill-opacity=".9" filter="url(#glow)"/><circle cx="430" cy="-60" r="3" fill="#EC7B69" fill-opacity=".9" filter="url(#glow)"/><circle cx="-420" cy="170" r="3" fill="#EC7B69" fill-opacity=".9" filter="url(#glow)"/><circle cx="420" cy="220" r="4" fill="#EC7B69" fill-opacity=".9" filter="url(#glow)"/></g><rect width="760" height="900" fill="url(#left)"/></svg>